<?xml version="1.0" encoding="UTF-8"?>
<svg id="Camada_1" data-name="Camada 1" xmlns="http://www.w3.org/2000/svg" viewBox="0 0 947.78 869.98">
  <defs>
    <style>
      .cls-1 {
        fill: #00adf6;
      }

      .cls-1, .cls-2, .cls-3 {
        stroke-width: 0px;
      }

      .cls-2 {
        fill: #ff82bb;
      }

      .cls-3 {
        fill: #b4b4b4;
      }
    </style>
  </defs>
  <path class="cls-1" d="M946.04,267.34c-11.98-60.37-128.81-120.71-253.31-58.15,4.35-.91,158.75-33.47,189.98,49.21,31.67,83.88-103.78,200.14-103.78,200.14,0,0-144.19,119.62-249.04,76.03-40.92-264.4,189.76-445.22,196.46-450.47-6.3,3.58-208.7,121.2-239.08,326.36-38.23,210.18,97.11,459.52,174.79,459.52,52.94,0,46.97-118.52,6.56-184.48-23.3-48.53-81.96-101.73-81.96-101.73,0,0,140.94-15.66,230.49-100.64,89.59-84.98,140.91-155.43,128.89-215.8ZM633.65,709.51c18.96,37.74,32.22,85.56,17.48,95.06-11.69,7.54-49.86-25.38-73.99-68.76-42.9-77.15-42.9-121.87-42.9-121.87,26.22-6.71,79.74,56.43,99.4,95.57Z"/>
  <ellipse class="cls-3" cx="476.92" cy="95.82" rx="93.62" ry="95.82"/>
  <path class="cls-2" d="M130.62,483.14c89.55,84.98,230.49,100.64,230.49,100.64,0,0-58.66,53.21-81.96,101.73-40.41,65.96-46.38,184.48,6.56,184.48,77.68,0,213.02-249.35,174.79-459.52-30.38-205.16-232.78-322.78-239.08-326.36,6.71,5.25,237.39,186.07,196.46,450.47-104.85,43.58-249.04-76.03-249.04-76.03,0,0-135.45-116.26-103.78-200.14,31.23-82.67,185.63-50.11,189.98-49.21-124.5-62.56-241.33-2.23-253.31,58.15-12.02,60.37,39.3,130.82,128.89,215.8ZM413.54,613.94s0,44.72-42.9,121.87c-24.12,43.38-62.29,76.29-73.99,68.76-14.75-9.5-1.48-57.32,17.48-95.06,19.66-39.13,73.19-102.27,99.4-95.57Z"/>
</svg>