<?xml version="1.0" encoding="UTF-8"?>
<svg id="Camada_1" data-name="Camada 1" xmlns="http://www.w3.org/2000/svg" viewBox="0 0 999.64 881.92">
  <defs>
    <style>
      .cls-1 {
        fill: #fff;
        stroke-width: 0px;
      }
    </style>
  </defs>
  <g>
    <path class="cls-1" d="M992.05,273.27c-11.98-60.37-128.81-120.71-253.31-58.15,4.35-.91,158.75-33.47,189.98,49.21,31.67,83.88-103.78,200.14-103.78,200.14,0,0-144.19,119.62-249.04,76.03-40.92-264.4,189.76-445.22,196.46-450.47-6.3,3.58-208.7,121.2-239.08,326.36-38.23,210.18,97.11,459.52,174.79,459.52,52.94,0,46.97-118.52,6.56-184.48-23.3-48.53-81.96-101.73-81.96-101.73,0,0,140.94-15.66,230.49-100.64,89.59-84.98,140.91-155.43,128.89-215.8ZM679.65,715.44c18.96,37.74,32.22,85.56,17.48,95.06-11.69,7.54-49.86-25.38-73.99-68.76-42.9-77.15-42.9-121.87-42.9-121.87,26.22-6.71,79.74,56.43,99.4,95.57Z"/>
    <g>
      <path class="cls-1" d="M997.83,271.67c-6.27-30.31-32.78-53.19-58.97-66.98-36.64-19.29-79.58-25.38-120.44-20.29-28.92,3.61-56.66,12.55-82.72,25.53-6.37,3.17-1.73,12.29,4.62,10.97,34.41-7.17,72.37-9.88,107.87-4.06,23.72,3.89,48.33,12.18,64.26,31.14,16.79,19.99,17.73,47.11,10.9,71.23-7.82,27.65-23.85,52.75-41.19,75.37-14.51,18.93-30.75,36.61-47.93,53.15-5.43,5.23-10.9,10.45-16.82,15.11-.47.37-.93.73-1.4,1.1-1.16.9.34-.26-.42.33-1.39,1.06-2.78,2.12-4.18,3.17-3.38,2.53-6.8,5.01-10.24,7.45-9.41,6.66-19.05,13-28.89,19.02-25.52,15.6-52.48,29.24-80.95,38.6-29.38,9.67-61.48,15.3-92.17,8.88-7.42-1.55-14.66-3.8-21.67-6.67l4.19,4.19c-7.24-47.37-5.98-95.94,3.7-142.87,8.61-41.75,23.5-82.02,43.16-119.81,17.03-32.74,37.44-63.75,60.46-92.59,17.4-21.81,36.23-42.5,56.37-61.8,9.78-9.38,20.26-17.84,30.34-26.85.28-.25.6-.47.9-.71,5.48-4.28-1.52-12.7-7.27-9.42-14.1,8.03-27.48,17.5-40.51,27.14-29.8,22.05-57.75,46.64-83.11,73.69-32.46,34.63-60.89,73.44-82.05,116-24.44,49.17-37.71,102.66-41.8,157.33-4.38,58.48,2.77,117.74,17.42,174.39,13.32,51.48,32.95,101.87,59.59,147.96,19.04,32.95,42.68,67.89,75.25,88.91,10.71,6.92,23.7,12.57,36.73,11.53,17.67-1.42,28.99-14.67,34.93-30.4,7.42-19.65,7.57-42.19,5.62-62.83-2.34-24.75-8.17-49.32-17.68-72.31-19.44-47.02-51.86-87.16-88-122.44-2.9-2.83-5.81-5.64-8.8-8.36l-4.24,10.24c14.74-1.65,29.4-4.63,43.83-7.96,33.22-7.66,65.76-18.44,96.79-32.6,18.56-8.47,36.55-18.25,53.51-29.6,18.86-12.62,35.7-27.33,51.96-43.11,33.57-32.59,66.65-67.17,91.77-106.88,19.45-30.74,34.45-66.94,27.31-103.87-1.46-7.57-13.03-4.37-11.57,3.19,5.83,30.15-5.89,60.34-20.87,86.02-22.28,38.21-53.05,71.27-84.22,102.33-16.45,16.39-33.07,32.58-52,46.12-16.19,11.58-33.44,21.63-51.3,30.4-30.47,14.95-62.77,26.11-95.68,34.3-12.09,3.01-24.28,5.62-36.57,7.71-3.47.59-6.94,1.13-10.42,1.63-1.63.24-.74.1-.37.05-.4.05-.8.1-1.2.15-.33.04-.65.08-.98.12-4.73.53-8.46,6.41-4.24,10.24,10.35,9.41,20.14,19.5,29.61,29.79,18.01,19.56,35.28,40.49,47.96,63.98,5.64,10.45,11.58,20.75,16.15,31.74,4.63,11.11,8.31,22.63,11.21,34.31,5.5,22.17,8.36,45.38,6.43,68.21-1.24,14.69-4.73,33.89-17.27,43.3-9.62,7.22-22.03,4.93-31.61.56-13.41-6.12-24.81-15.99-34.99-26.49-13.58-14-25.23-29.75-35.76-46.13-27-42-47.07-88.48-61.69-136.13-16.58-54.02-26.2-110.48-25.84-167.06.35-53.68,9.78-108.07,30.25-157.81,17.9-43.5,43.99-83.59,74.51-119.27,25.05-29.28,53.17-55.94,83.39-79.82,16.32-12.89,33.32-25.11,51.13-35.87,1.15-.7,2.31-1.39,3.48-2.06-2.42-3.14-4.85-6.28-7.27-9.42-14.11,11.03-27.25,23.41-39.91,36.04-28.96,28.89-55.2,60.63-78.03,94.57-29.64,44.07-53.43,92.38-68.21,143.47-8.24,28.51-13.59,57.87-15.8,87.47-1.18,15.76-1.44,31.59-.77,47.38.33,7.81.88,15.62,1.66,23.4.4,3.97.85,7.93,1.36,11.88s.29,9.99,2.31,13.52c1.66,2.89,6.24,3.87,9.2,4.92,3.19,1.14,6.42,2.14,9.7,3,6.46,1.71,13.05,2.85,19.68,3.62,13.33,1.56,26.82,1.15,40.12-.57,27.22-3.52,53.36-12.25,78.35-23.41,35.12-15.69,68.47-36.28,98.64-60.15,18.54-14.67,35.01-32.82,50.31-50.71,15.93-18.62,30.74-38.48,42.42-60.06,11.35-20.98,20.4-44.48,20.38-68.66-.02-22.06-8.62-43.59-24.92-58.66-15.88-14.67-36.87-22.56-57.82-26.62-36.61-7.08-75.1-4.78-111.66,1.59-2.66.46-5.32.96-7.97,1.51l4.62,10.97c40.61-20.22,86.69-30.05,131.93-23.78,33.26,4.61,67.36,17.72,91.41,41.84,10.09,10.12,18.24,22.35,21.17,36.51,1.56,7.56,13.13,4.36,11.57-3.19Z"/>
      <path class="cls-1" d="M674.47,718.47c6.8,13.63,12.63,27.76,17.03,42.35,3.38,11.19,6.64,23.32,5.85,35.12-.19,2.83-.83,6.68-2.42,8.56-1.13,1.33-.68.99-1.67,1.12,1.1-.14-.13-.02-.57-.05-.6-.04-.32.05-1.5-.24-8.59-2.09-16.29-9-22.64-14.8-22.45-20.52-38.25-46.45-51.62-73.5-10.97-22.21-20.33-45.41-26.23-69.51-1-4.09-1.9-8.21-2.65-12.35-.31-1.69-.59-3.39-.85-5.1-.31-2-.16-.89-.38-2.84-.27-2.44-.56-4.91-.57-7.36l-4.4,5.79c6.26-1.46,14.62,3,20.72,6.96,10.01,6.5,18.78,14.9,26.97,23.53,17.55,18.5,33.38,39.53,44.93,62.32,3.49,6.89,13.85.82,10.36-6.06-9.71-19.15-22.56-36.84-36.43-53.17-12.93-15.23-27.84-31.15-45.77-40.51-7.37-3.85-15.64-6.58-23.98-4.64-2.55.59-4.41,3.23-4.4,5.79.02,9.27,2.08,18.8,4.15,27.77,6.04,26.19,16.3,51.41,28.17,75.45,14.39,29.12,31.93,57.56,56.86,78.9,7.31,6.26,16.11,13.39,25.86,15.18,9.16,1.69,15.95-3.8,18.64-12.4,3.99-12.76.32-28.08-2.99-40.56-4.75-17.91-11.85-35.24-20.11-51.8-3.45-6.91-13.8-.84-10.36,6.06Z"/>
    </g>
  </g>
  <g>
    <ellipse class="cls-1" cx="502.92" cy="101.75" rx="93.62" ry="95.82"/>
    <path class="cls-1" d="M590.53,101.75c-.26,36.63-22.52,71.45-57.37,84.35-35.02,12.96-74.42,1.67-97.88-27.19-23.63-29.07-26.33-71.51-7.35-103.63s56.19-49.26,92.42-41.57c41.26,8.75,69.88,46.36,70.18,88.05.06,7.72,12.06,7.74,12,0-.3-42.29-26.26-81.14-66.18-95.92-39.16-14.49-84.48-1.18-110.38,31.3-26.42,33.14-30.03,80.55-8.41,117.15,21.31,36.08,63.46,55.4,104.65,47.36,47.05-9.19,79.97-52.74,80.31-99.89.06-7.72-11.94-7.73-12,0Z"/>
  </g>
  <g>
    <path class="cls-1" d="M136.62,489.07c89.55,84.98,230.49,100.64,230.49,100.64,0,0-58.66,53.21-81.96,101.73-40.41,65.96-46.38,184.48,6.56,184.48,77.68,0,213.02-249.35,174.79-459.52-30.38-205.16-232.78-322.78-239.08-326.36,6.71,5.25,237.39,186.07,196.46,450.47-104.85,43.58-249.04-76.03-249.04-76.03,0,0-135.45-116.26-103.78-200.14,31.23-82.67,185.63-50.11,189.98-49.21-124.5-62.56-241.33-2.23-253.31,58.15-12.02,60.37,39.3,130.82,128.89,215.8ZM419.54,619.87s0,44.72-42.9,121.87c-24.12,43.38-62.29,76.29-73.99,68.76-14.75-9.5-1.48-57.32,17.48-95.06,19.66-39.13,73.19-102.27,99.4-95.57Z"/>
    <g>
      <path class="cls-1" d="M132.38,493.31c57.98,54.71,137.35,85.45,214.94,99.37,6.56,1.18,13.17,2.28,19.79,3.02l-4.24-10.24c-10.83,9.84-21.05,20.42-30.92,31.22-18.76,20.53-36.97,42.65-49.83,67.44-5.64,10.87-11.64,21.36-16.3,32.74s-8.51,23.48-11.43,35.61c-5.54,23.07-8.52,47.44-6.25,71.15,1.65,17.19,5.89,37.31,19.54,49.25,11.18,9.77,26.17,10.94,39.85,6.33,14.31-4.83,26.77-14.21,37.72-24.38,14.36-13.34,26.65-28.91,37.74-45.01,28.8-41.79,50.07-88.97,65.93-137.06,18.11-54.92,29.06-112.67,30.15-170.56,1.06-55.92-7.36-113.39-27.62-165.67-17.92-46.24-44.35-88.61-76.03-126.65-25.62-30.77-54.65-58.69-85.96-83.63-17.66-14.07-36-27.49-55.34-39.19-1.22-.74-2.45-1.48-3.69-2.18-5.69-3.24-12.8,5.1-7.27,9.42,8.85,6.92,17.26,14.45,25.47,22.11,19.3,17.99,37.4,37.28,54.25,57.57,22.99,27.67,43.59,57.39,61.11,88.83,20.43,36.68,36.49,75.78,46.61,116.57,11.36,45.8,14.81,93.3,9.96,140.25-.67,6.45-1.5,12.88-2.48,19.3l4.19-4.19c-58.64,24.02-125.38-1.72-177.35-30.63-19.72-10.97-38.74-23.28-56.79-36.81-1.27-.95-2.52-1.9-3.78-2.87-1.18-.9.7.55-.6-.46-.55-.43-1.1-.86-1.65-1.3-.97-.76-1.94-1.52-2.88-2.31-2.07-1.74-4.06-3.59-6.06-5.42-35.8-32.89-70.47-71.85-90.01-116.82-10.15-23.37-15.9-51.16-5-75.33,10.2-22.62,31.99-35.48,55.09-41.92s49.67-7.62,74.56-6.32c16.89.88,32.19,2.63,48.45,5.75,1.06.2,2.13.42,3.19.64,6.29,1.31,11.05-7.77,4.62-10.97-41.21-20.52-87.55-31.11-133.6-25.96-34.95,3.91-69.78,16.15-96.87,39.09-10.6,8.97-20.13,19.96-26.13,32.58C1.91,267.34-.25,280.19.02,293.1c.66,31.75,15.44,61.7,32.61,87.67,27.67,41.85,63.51,78.13,99.74,112.54,5.6,5.32,14.1-3.15,8.49-8.49-31.41-29.83-62.34-60.96-88-95.98-18.07-24.66-34.82-52.37-39.74-83.03-1.9-11.83-1.74-24.58,1.68-36.13s10.48-21.63,18.74-30.17c22.22-22.96,53.49-36.02,84.5-41.7,47.65-8.72,96.97,1.06,139.98,22.47l4.62-10.97c-28.38-5.91-58.07-8.38-87-6.93-42.15,2.11-91.45,14.64-109.24,57.54-18.89,45.55,8.5,96.25,34.85,132.65,19.86,27.43,43.1,53.68,68.91,75.72,20.85,17.81,44.84,32.84,68.72,46.13,45.57,25.35,99.63,47.1,152.79,40.48,6.63-.82,13.2-2.02,19.65-3.79,5.16-1.42,16.52-3.36,18.35-9.05,1.19-3.69,1.21-8.25,1.7-12.09.57-4.44,1.07-8.9,1.5-13.36.75-7.77,1.27-15.57,1.57-23.37,1.19-31.01-1.25-62.11-6.94-92.62-10.13-54.31-31.02-106.36-58.87-153.97-22.48-38.42-49.52-74.21-79.74-106.87-16.74-18.09-34.46-35.47-53.56-51.09-1.22-1-2.44-1.98-3.68-2.95l-7.27,9.42c13.26,7.55,25.87,16.42,38.17,25.42,28.2,20.65,54.62,43.84,78.79,69.08,31.47,32.86,59.06,69.55,80.24,109.89,24.33,46.37,38.21,96.84,43.41,148.87,5.63,56.43.12,113.67-12.86,168.75-12.05,51.11-30.37,101.05-55.49,147.21-18.04,33.14-40.13,68.11-70.77,91.1-5.38,4.04-11.15,7.68-17.3,10.44-3.99,1.79-10.82,3.64-14.65,3.87-14.1.83-23.44-8.72-28.35-21.64-7.2-18.91-7.06-40.4-5.13-60.25,2.31-23.71,8.28-47.47,17.57-69.41,4.6-10.86,10.48-21.12,16.11-31.45,6.51-11.95,14.3-23.22,22.62-33.98,14.11-18.24,29.86-35.28,46.37-51.36,2.71-2.64,5.44-5.27,8.24-7.81,4.24-3.85.5-9.71-4.24-10.24-.33-.04-.65-.08-.98-.12-.4-.05-.8-.1-1.2-.15.08.01,1.35.2-.37-.05-3.68-.53-7.35-1.1-11.01-1.73-12.58-2.16-25.07-4.86-37.44-7.98-38.55-9.71-76.28-23.51-111.14-42.74-23.14-12.77-44.88-27.95-64.13-46.11-5.61-5.3-14.12,3.17-8.49,8.49Z"/>
      <path class="cls-1" d="M413.54,619.87c0,4.05-.63,8.15-1.04,10.79-1.75,11.35-4.64,22.53-8.08,33.48-5.81,18.47-13.36,36.35-21.96,53.69-10.11,20.37-21.44,40.03-36.36,57.3-9.38,10.86-21,23.94-34.73,29.33-2.33.91-3.57,1.15-5.39,1.09,1.03.04-.67-.73.13.01-.47-.44-1.12-.86-1.57-1.54-3.05-4.61-2.36-11.73-1.9-16.93,1.7-19.47,9.15-39.05,17.06-56.75,6.97-15.59,15.58-30.15,25.57-43.99,11.48-15.89,24.45-31.07,39.25-43.98,5.88-5.13,12.16-9.93,19.13-13.5,4.64-2.38,10.19-4.18,14.31-3.22,7.51,1.75,10.72-9.82,3.19-11.57-13.29-3.09-26.52,5.2-36.63,12.89-14.83,11.29-27.62,25.14-39.22,39.67-25.29,31.67-45.75,69.15-53.13,109.37-2.2,12-5.28,33.17,8.32,40.12,11.89,6.08,27.09-6.68,35.4-13.74,35-29.69,57.12-73.51,73.31-115.65,6.02-15.67,11.1-31.84,14.12-48.38,1.1-6.04,2.22-12.32,2.23-18.49.02-7.72-11.98-7.73-12,0Z"/>
    </g>
  </g>
</svg>